<svg fill="none" height="24" viewBox="0 0 24 24" width="24" xmlns="http://www.w3.org/2000/svg" xmlns:xlink="http://www.w3.org/1999/xlink"><filter id="a" color-interpolation-filters="sRGB" filterUnits="userSpaceOnUse" height="264" width="264" x="-120" y="-120"><feFlood flood-opacity="0" result="BackgroundImageFix"/><feGaussianBlur in="BackgroundImageFix" stdDeviation="60"/><feComposite in2="SourceAlpha" operator="in" result="effect1_backgroundBlur_913_2740"/><feBlend in="SourceGraphic" in2="effect1_backgroundBlur_913_2740" mode="normal" result="shape"/></filter><radialGradient id="b" cx="0" cy="0" gradientTransform="matrix(0 25.875 -31.9206 0 12 3.375)" gradientUnits="userSpaceOnUse" r="1"><stop offset="0" stop-color="#174aff"/><stop offset="1" stop-color="#4971ff" stop-opacity="0"/></radialGradient><radialGradient id="c" cx="0" cy="0" gradientTransform="matrix(0 11.1 -15.1809 0 12 0)" gradientUnits="userSpaceOnUse" r="1"><stop offset="0" stop-color="#c5fff1"/><stop offset="1" stop-color="#94f5fb" stop-opacity="0"/></radialGradient><g filter="url(#a)"><rect fill="#bd24ff" height="24" rx="3" width="24"/><rect fill="url(#b)" height="24" rx="3" width="24"/><rect fill="url(#c)" fill-opacity=".5" height="24" rx="3" width="24"/><path clip-rule="evenodd" d="m8.3913 5.60861c1.49596-.84769 3.242-1.14328 4.9336-.83523 1.6917.30805 3.2214 1.2002 4.3225 2.52082.8051.96555 1.3436 2.11532 1.5746 3.3358h-1.6119-.01l2.36 2.87 2.35-2.87h-1.5661c-.2458-1.57335-.9138-3.06023-1.9445-4.29637-1.3261-1.59051-3.1685-2.66497-5.2058-3.03598s-4.14023-.015-5.9419 1.00591c-1.80167 1.02092-3.18776 2.64194-3.91647 4.58031-.72871 1.93833-.75379 4.07103-.07087 6.02603.68291 1.955 2.03049 3.6081 3.80765 4.6711 1.77716 1.0631 3.87109 1.4684 5.91659 1.1454s3.9126-1.3538 5.2758-2.9127l-1.1292-.9874c-1.1318 1.2944-2.6822 2.1503-4.3806 2.4185-1.6983.2682-3.43699-.0684-4.9126-.951-1.47561-.8827-2.59452-2.2553-3.16156-3.8786-.56704-1.6232-.54621-3.394.05885-5.00349.60506-1.60946 1.75595-2.95542 3.25191-3.8031zm4.5472 2.83327.82-1.39 1.7226 1.01621-.82 1.39zm-.3297.55025-3.05877 5.18797-.00015-.0001-.00003.0004-.00102.0017.00085.0005-.1698 2.2574 1.90002-1.24-.007-.0041 3.0588-5.188z" fill="#fff" fill-rule="evenodd"/></g></svg>