<svg fill="none" height="62" viewBox="0 0 62 62" width="62" xmlns="http://www.w3.org/2000/svg" xmlns:xlink="http://www.w3.org/1999/xlink"><clipPath id="a"><rect height="62" rx="6" width="62"/></clipPath><g clip-path="url(#a)"><path clip-rule="evenodd" d="m31 0c-17.1208 0-31 13.8792-31 31s13.8792 31 31 31 31-13.8792 31-31-13.8792-31-31-31zm-7.3323 17.7674c0 .9761-.7912 1.7674-1.7673 1.7674s-1.7674-.7913-1.7674-1.7674.7913-1.7674 1.7674-1.7674 1.7673.7913 1.7673 1.7674zm27.601 15.2937-2.0899-1.5481c.1806-1.9093-2.3479-4.6893-5.2699-6.3471-.9353-.5418-1.9093-1.0127-2.9607-1.4449.0475-.1209.1117-.278.1774-.4391l.0006-.0013v-.0002c.1305-.3195.2672-.6541.2929-.7527.1806-.574.0709-1.2255-.4386-1.548-.8257-.5419-2.2383-1.2643-4.1476-1.3353-.645-.0387-1.1869.4322-1.2965 1.045-.0211.0772-.0841.326-.1538.6012l-.0002.0009c-.0584.2308-.1215.4799-.1685.6622-1.3353-.2516-2.7027-.4322-4.0057-.4709h-.4322c-1.3352.0387-2.7027.2193-4.0766.4709-.0709-.3226-.2515-1.045-.3225-1.2643-.2193-.7547-.6837-1.0837-1.2965-1.045-1.9093.071-3.3219.7547-4.1476 1.3353-.5031.3225-.645.974-.4321 1.548.0913.2095.3302.6963.4895 1.0209l.0001.0003.0001.0001.0843.172c-1.0127.4322-2.0189.9031-2.9607 1.4449-2.9607 1.6578-5.5215 4.5088-5.2699 6.4245 0 .0355.0097.0629.0194.0903.0096.0275.0193.0549.0193.0904l-2.0899 1.5158c-.6128.5031-.90304 1.2642-.7547 2.0576.6838 3.7154 2.2383 5.3732 3.2445 6.0956.5419.3612 1.2643.3999 1.8384.071l1.2965-.7934c.4386.5418.903 1.0449 1.4449 1.4771 1.4448 1.1546 3.2445 1.8383 5.3731 2.2705v.0774c0 .3225.1161 1.5352 2.3092 2.019 2.4898.5418 8.3725.5418 10.8559 0 2.4834-.5419 2.3092-2.0899 2.3092-2.0899 1.0837-.2194 2.077-.4967 2.9736-.8644s1.6965-.8321 2.3996-1.4062c.6127-.4708 1.1159-1.0449 1.5867-1.6577l1.1934.7547c.574.3225 1.2965.2903 1.8383-.071 1.045-.7224 2.5608-2.3801 3.2445-6.1342.1806-.7225-.1032-1.5159-.6837-2.019zm-5.5215-1.5158c-.6837 3.1736-2.4511 7.9726-4.9409 9.0885-2.0252.9033-6.0362.8829-8.9757.8679-.3562-.0018-.6966-.0035-1.0159-.0035-.2623 0-.5355.0008-.8172.0017h-.0003-.0004-.0004-.0003-.0004-.0004-.0001c-2.8906.0092-6.675.0212-8.7786-.8661-2.4898-1.1159-4.2572-5.9149-4.9409-9.0885-.3612-1.7287.4709-3.7864 3.2832-5.1216 2.8833-1.3739 4.2959-.6127 6.1665 1.374 1.1546 1.1933 9.4175 1.1933 10.5721 0 1.8771-1.9867 3.2832-2.7414 6.1665-1.374 2.8124 1.3352 3.6445 3.3929 3.2832 5.1216zm-9.785 5.6182c1.0708.4451 2.4382-.4257 3.0639-1.9351.6192-1.5158.2645-3.0962-.8063-3.5348-1.0707-.4451-2.4447.4257-3.0639 1.9351-.6192 1.5158-.2645 3.0962.8063 3.5348zm-9.843 0c.1969-.0818.3698-.202.517-.3531.6588-.6689.809-1.9523.302-3.1881-.6257-1.5094-1.9931-2.3737-3.0639-1.9351-.1943.0813-.3651.2003-.5109.3499-.6579.668-.8095 1.9535-.3017 3.1913.6192 1.503 1.9867 2.3738 3.0575 1.9351zm15.8415-19.3961c0 .9761-.7913 1.7674-1.7674 1.7674s-1.7674-.7913-1.7674-1.7674.7913-1.7674 1.7674-1.7674 1.7674.7913 1.7674 1.7674z" fill="#a7aaad" fill-rule="evenodd"/></g></svg>